<svg xmlns="http://www.w3.org/2000/svg">
	<symbol id="icon-logo" viewBox="0 0 91.259 43.819">
		<path fill="currentColor" d="M44.055,9.928h-13.19v3.823h4.553v20.32h4.074v-20.32h4.563V9.928z M65.254,13.132c-1.138-1.135-2.496-2.054-4.005-2.688c-1.506-0.635-3.162-0.986-4.898-0.986c-1.729,0-3.381,0.354-4.889,0.988c-1.509,0.634-2.871,1.553-4.02,2.681c-1.147,1.131-2.077,2.471-2.722,3.951c-0.643,1.482-1.001,3.104-1.001,4.796c0,1.763,0.349,3.438,0.98,4.957c0.633,1.52,1.55,2.882,2.689,4.024c1.137,1.144,2.496,2.063,4.01,2.701c1.516,0.636,3.188,0.987,4.951,0.987c1.736,0,3.393-0.352,4.898-0.984c1.509-0.637,2.867-1.553,4.005-2.688c1.142-1.131,2.063-2.482,2.7-3.979c0.639-1.498,0.992-3.146,0.992-4.872c0-1.74-0.354-3.393-0.992-4.896C67.317,15.621,66.396,14.268,65.254,13.132z M64.054,25.412c-0.419,1.042-1.024,1.979-1.778,2.762c-0.751,0.787-1.647,1.422-2.65,1.859c-1.001,0.439-2.106,0.683-3.274,0.683s-2.272-0.245-3.271-0.688c-1-0.44-1.896-1.079-2.646-1.863c-0.752-0.786-1.355-1.721-1.774-2.754c-0.416-1.034-0.646-2.169-0.646-3.354c0-1.214,0.229-2.368,0.642-3.419c0.413-1.049,1.013-1.995,1.759-2.788c0.747-0.793,1.637-1.435,2.634-1.877c0.996-0.444,2.099-0.686,3.267-0.686c1.178,0,2.289,0.242,3.296,0.681c1.007,0.439,1.905,1.076,2.663,1.866c0.754,0.79,1.362,1.728,1.781,2.774c0.416,1.047,0.648,2.2,0.648,3.414C64.702,23.226,64.47,24.371,64.054,25.412z M24.044,25.344c0-1.196,0.019-2.415,0.053-3.658c0.31-0.115,0.685-0.294,0.88-0.531c0.125-0.15,0.192-0.405,0.192-0.677c0-0.172-0.023-0.352-0.085-0.508c-0.076-0.199-0.244-0.37-0.438-0.517c-0.192-0.146-0.397-0.234-0.613-0.304c-0.999-0.324-1.922-0.362-3.06-0.43l-0.226-0.012l-0.587-0.026c0,0-0.427-0.019-0.595-0.027c0.087-0.669,0.553-4.147,1.03-6.504c0.097-0.57,0.239-1.149,0.39-1.763l0.006-0.026c0.284-1.155,0.575-2.331,0.575-3.478c0-1.002-0.22-1.982-0.858-2.907c-1.501-2.188-4.08-3.019-6.643-3.593C12.515,0.121,4.636-1.005,1.231,2.471C0.424,3.303,0,4.385,0,5.554c0,0.433,0.058,0.876,0.174,1.322c0.332,1.188,0.701,2.366,1.06,3.506c0.906,2.89,1.84,5.871,2.144,9.042c-0.024,0.014-0.053,0.028-0.053,0.028c-0.048,0.031-0.282,0.188-0.365,0.306c-0.117,0.174-0.244,0.421-0.244,0.843c0,0.086,0.005,0.183,0.018,0.285c0.042,0.366,0.319,0.675,0.695,0.808c0.008,0.229,0.013,0.458,0.013,0.688c0,1.666-0.183,3.363-0.362,5.013l-0.092,1.132c-0.044,0.611-0.088,1.246-0.192,1.849l-0.37,2.239l-0.455,2.693L1.906,35.66c-0.281,1.553-0.523,2.895-0.743,4.429l-0.005,0.04l0.124,0.203l0.038,0.015c0.44,0.167,0.865,0.129,1.301-0.118l0.022-0.014l0.09-0.123l0.344-1.562c0.904-4.104,1.837-8.345,2.307-12.585c0.308,0.077,0.681,0.125,1.084,0.168c0,0,0.481,0.049,0.53,0.053c0.011,0.166,0.137,1.988,0.137,1.988c0,0.006,0.368,15.382,0.368,15.382l0.144,0.184l0.036,0.009c0.341,0.092,0.961,0.195,1.29-0.139l0.016-0.016l0.055-0.132v-0.023c0.007-1.341,0.062-2.747,0.115-4.106l0.067-1.789c0.067-2.005,0.099-3.76,0.099-5.511c0-1.837-0.038-3.669-0.111-5.769c1.801,0.088,3.653,0.034,5.396-0.029l0.765-0.029c0,0,1.827-0.058,2.023-0.063c0.066,1,0.591,8.542,1.361,12.758c0.003,0.024,0.091,0.328,0.091,0.328l0.009,0.029l0.128,0.129l0.027,0.008c0.319,0.097,0.949,0.188,1.28-0.074l0.026-0.021l0.068-0.18l-0.004-0.03c-0.703-5.068-0.833-9.837-0.917-13.026c0.604-0.062,2.027-0.259,2.469-0.319c-0.014,0.475-0.025,0.947-0.025,1.418c0,5.535,1.01,10.75,1.91,15.4l0.006,0.031l0.025,0.046l0.111,0.123l0.031,0.009c0.425,0.128,1.054,0.105,1.379-0.188l0.024-0.021l0.059-0.174l-0.004-0.029C24.51,37.103,24.044,31.513,24.044,25.344z M0.785,5.75c0.274,1.373,1.048,2.77,1.034,4.19C1.426,8.551,0.513,7.277,0.785,5.75z M1.985,6.864C1.934,6.708,1.891,6.553,1.861,6.408C1.799,6.141,1.744,5.804,1.744,5.435c0-0.869,0.299-1.914,1.478-2.665c2.89-1.645,7.53-1.282,9.39-1.048c1.529,0.235,5.114,0.79,6.695,3.043c0.343,0.565,0.513,1.215,0.513,1.978c0,0.536-0.089,1.129-0.256,1.788c-0.44-2.02-1.385-3.25-3.034-3.933C13.573,3.314,7.714,3.082,4.036,4.804C3.536,5.092,2.426,5.827,1.985,6.864z M5.254,24.888c0.226-0.158,1.398-0.241,1.797-0.282l0.031,0.423L5.254,24.888z M5.432,23.814v-1.736c0.119,0.016,0.281,0.035,0.281,0.035c0.35,0.043,0.712,0.088,1.064,0.089c0.006,0.081,0.012,0.17,0.012,0.17s0.077,1.095,0.091,1.29C6.703,23.681,5.633,23.792,5.432,23.814z M8.306,20.915c0,0,1.884-0.022,2.482,0c0.46,0.018,2.708-0.056,2.708-0.056s-0.596,0.288-2.069,0.311C10.151,21.193,8.889,21.061,8.306,20.915z M17.199,22.254c0.006,0.163,0.033,0.86,0.04,1.036c-0.187,0-0.942,0-0.942,0c-2.412-0.006-4.905-0.009-7.305,0.221c-0.013-0.18-0.069-1.067-0.081-1.256C9.143,22.255,16.988,22.254,17.199,22.254z M8.98,25.095c-0.018-0.068-0.029-0.41-0.047-0.65c2.736-0.29,5.48-0.294,8.49-0.146l0.034,0.73C14.493,25.041,11.787,25.297,8.98,25.095z M17.442,18.556c-4.023-0.225-8.107,0.132-12.06,0.488c-0.196-1.175-0.438-2.606-0.721-3.956c0.153-0.141,0.402-0.438,0.402-0.912c0-0.031-0.001-0.064-0.004-0.097c-0.011-0.168-0.13-0.477-0.374-1.108c-0.451-1.161-1.26-3.243-1.26-4.741c0-0.554,0.11-1.026,0.39-1.345c1.767-1.903,7.54-2.174,11.325-1.137c1.321,0.433,2.319,1.204,2.597,2.009c0.176,0.5,0.239,1.118,0.239,1.772c0,1.091-0.177,2.28-0.312,3.182l-0.05,0.337c-0.09,0.616-0.141,0.973-0.141,1.193c0,0.091,0.009,0.157,0.026,0.208c0.114,0.324,0.376,0.51,0.565,0.609C18.039,15.209,17.474,18.375,17.442,18.556z M18.182,12.811c0.03-2.587,1.5-5.725-1.82-7.363c1.328,0.629,2.268,1.213,2.491,3.086C18.954,10.461,18.513,11.146,18.182,12.811z M18.929,14.477c0.022-2.318,0.728-4.547,1.416-6.765C19.983,10.004,19.411,12.212,18.929,14.477z M19.336,24.949l-0.016-0.582c2.132,0.022,2.602,0.261,2.602,0.261S21.565,24.843,19.336,24.949z M21.951,23.666c-0.291-0.052-1.078-0.174-2.551-0.27c-0.008-0.16-0.048-1.035-0.056-1.213c0.919-0.033,1.708-0.124,2.607-0.24V23.666z M22.353,20.306c0,0-0.494,0.058-1.04,0.094c0,0-0.802,0.007-0.88,0.013c-0.023-0.018-0.115-0.135-0.204-0.202c1.706-0.032,2.944-0.193,3.922-0.386C23.806,19.955,23.298,20.201,22.353,20.306z M16.528,4.598C16.529,4.599,16.529,4.599,16.528,4.598l0.003,0L16.528,4.598z M87.229,9.928v17.636L76.758,9.928H72.14v24.143h4.02V16.435L86.7,34.071l4.559,0.004V9.932L87.229,9.928z"/>
	</symbol>

	<symbol id="icon-arrow-left" viewBox="0 0 47.889 30.77">
		<path fill="currentColor" d="M2,17.373h43.889c1.104,0,2-0.896,2-2c0-1.105-0.896-2-2-2H2c-1.104,0-2,0.896-2,2C0,16.477,0.896,17.73,2,17.373"/>
		<path fill="currentColor" d="M3.413,16.788L16.81,3.416c0.782-0.78,0.783-2.047,0.002-2.829s-2.047-0.783-2.829-0.002L0.587,13.957c-0.782,0.78-0.783,2.047-0.002,2.828C1.365,17.567,2.631,17.568,3.413,16.788"/>
		<path fill="currentColor" d="M0.586,16.787l13.396,13.396c0.781,0.781,2.047,0.781,2.828,0c0.781-0.781,0.781-2.048,0-2.828L3.414,13.958c-0.781-0.781-2.047-0.781-2.828,0C-0.195,14.739-0.195,16.006,0.586,16.787"/>
	</symbol>

	<symbol id="icon-arrow-right" viewBox="0 0 47.889 30.77">
		<path fill="currentColor" d="M45.889,17.373H2c-1.104,0-2-0.896-2-2c0-1.105,0.896-2,2-2h43.889c1.104,0,2,0.896,2,2C47.889,16.477,46.993,17.373,45.889,17.373"/>
		<path fill="currentColor" d="M44.476,16.788L31.079,3.416c-0.782-0.78-0.783-2.047-0.003-2.829s2.047-0.783,2.829-0.002l13.396,13.373c0.781,0.78,0.782,2.047,0.002,2.828C46.523,17.567,45.257,17.568,44.476,16.788"/>
		<path fill="currentColor" d="M47.303,16.787L33.906,30.184c-0.781,0.781-2.048,0.781-2.828,0c-0.781-0.781-0.781-2.048,0-2.828l13.396-13.397c0.78-0.781,2.047-0.781,2.828,0C48.084,14.739,48.084,16.006,47.303,16.787"/>
	</symbol>

	<symbol id="icon-grid" viewBox="0 0 57.333 57.332">
		<path fill="currentColor" d="M7.166,1.5v54.332c0,0.828,0.671,1.5,1.5,1.5s1.5-0.672,1.5-1.5V1.5c0-0.828-0.671-1.5-1.5-1.5S7.166,0.672,7.166,1.5"/>
		<path fill="currentColor" d="M27.499,1.5v54.332c0,0.828,0.671,1.5,1.5,1.5s1.5-0.672,1.5-1.5V1.5c0-0.828-0.671-1.5-1.5-1.5S27.499,0.672,27.499,1.5"/>
		<path fill="currentColor" d="M47.167,1.5v54.332c0,0.828,0.672,1.5,1.5,1.5s1.5-0.672,1.5-1.5V1.5c0-0.828-0.672-1.5-1.5-1.5S47.167,0.672,47.167,1.5"/>
		<path fill="currentColor" d="M55.833,7.166H1.5c-0.829,0-1.5,0.672-1.5,1.5s0.671,1.5,1.5,1.5h54.333c0.828,0,1.5-0.672,1.5-1.5S56.661,7.166,55.833,7.166"/>
		<path fill="currentColor" d="M55.833,27.498H1.5c-0.829,0-1.5,0.672-1.5,1.5s0.671,1.5,1.5,1.5h54.333c0.828,0,1.5-0.672,1.5-1.5S56.661,27.498,55.833,27.498"/>
		<path fill="currentColor" d="M55.833,47.166H1.5c-0.829,0-1.5,0.672-1.5,1.5s0.671,1.5,1.5,1.5h54.333c0.828,0,1.5-0.672,1.5-1.5S56.661,47.166,55.833,47.166"/>
	</symbol>

	<symbol id="icon-minus" viewBox="0 0 19.667 19.667">
		<rect fill="currentColor" y="7.833" width="19.667" height="4"/>
	</symbol>

	<symbol id="icon-plus" viewBox="0 0 19.667 19.667">
		<rect fill="currentColor" x="7.833" width="4" height="19.667" />
		<rect fill="currentColor" y="7.833" width="19.667" height="4" />
	</symbol>

	<symbol id="icon-zoom" viewBox="0 0 48.353 48.337">
		<path fill="currentColor" d="M47.397,42.703L33.188,28.51c2.137-3.085,3.206-6.522,3.206-10.313c0-2.464-0.479-4.82-1.436-7.069 	c-0.955-2.25-2.248-4.188-3.877-5.816c-1.628-1.628-3.566-2.921-5.815-3.876C23.017,0.479,20.661,0,18.196,0 c-2.464,0-4.82,0.479-7.069,1.435C8.878,2.391,6.94,3.684,5.312,5.312C3.684,6.94,2.391,8.879,1.435,11.127S0,15.732,0,18.196 c0,2.464,0.479,4.82,1.435,7.069c0.956,2.248,2.249,4.187,3.877,5.814c1.628,1.629,3.567,2.921,5.816,3.877c2.249,0.957,4.605,1.436,7.069,1.436c3.792,0,7.229-1.068,10.313-3.205l14.209,14.167c0.62,0.655,1.396,0.982,2.326,0.982c0.896,0,1.672-0.327,2.325-0.982c0.656-0.653,0.982-1.43,0.982-2.325C48.354,44.115,48.035,43.341,47.397,42.703z M26.378,26.377c-2.267,2.266-4.994,3.398-8.182,3.398s-5.914-1.133-8.18-3.398c-2.266-2.267-3.399-4.993-3.399-8.181c0-3.188,1.133-5.915,3.399-8.181c2.266-2.266,4.992-3.399,8.18-3.399c3.188,0,5.915,1.133,8.182,3.399c2.266,2.266,3.398,4.993,3.398,8.181C29.776,21.384,28.643,24.11,26.378,26.377z" />
	</symbol>

	<symbol id="icon-flip" viewBox="0 0 26 26">
		<path fill="currentColor" d="M11.897,20.684V3.649L2.719,20.684H11.897z M11.236,20.022h-7.41l7.41-13.752V20.022z"/>
		<polygon fill="currentColor" points="14.104,3.649 14.104,20.684 23.281,20.684"/>
	</symbol>

	<symbol id="icon-delete" viewBox="0 0 78.335 112.176">
		<path fill="currentColor" d="M73.641,45.957l-0.021,0.252c0,0.032,0.021,0.06,0.021,0.088c0,0.065-0.022,0.126-0.026,0.191l-2.685,54.878H70.91c-0.231,4.304-5.166,10.81-31.748,10.81c-26.58,0-31.509-6.506-31.746-10.81H7.41L4.731,46.488c-0.009-0.06-0.028-0.126-0.028-0.191c0-0.032,0.01-0.06,0.01-0.088l-0.01-0.252h0.028c0.099-0.466,0.364-0.919,0.784-1.353c3.439,3.477,17.191,4.051,33.646,4.051s30.221-0.574,33.642-4.051c0.426,0.434,0.711,0.887,0.784,1.353H73.641z M78.335,25.102v6.407c0,1.316-1.34,2.567-3.715,3.696c-6.266,2.936-19.777,4.975-35.459,4.975c-15.666,0-29.189-2.039-35.442-4.975C1.33,34.075,0,32.825,0,31.509v-6.407c0-3.374,8.681-6.286,21.359-7.724V3.929c0-2.16,1.768-3.929,3.93-3.929h26.314c2.164,0,3.938,1.773,3.938,3.938v13.296C68.98,18.606,78.333,21.611,78.335,25.102z M48.416,11.395c0-2.348-0.321-4.27-0.715-4.27c-0.393,0-2.641,0-4.979,0h-8.545c-2.352,0-4.592,0-4.989,0c-0.388,0-0.714,1.922-0.714,4.27v5.367l1.083-0.065c3.067-0.173,6.286-0.27,9.595-0.271c3.202,0,6.292,0.098,9.264,0.252V11.395z"/>
	</symbol>

	<symbol id="icon-save" viewBox="0 0 800 600">
		<path fill="currentColor" d="M705.584,134.066L569.867,5.791C566.035,2.181,560.757,0,553.721,0H109.724C96.897,0,86.966,9.931,86.966,22.758v554.484c0,12.827,9.931,22.758,22.758,22.758h580.553c12.826,0,22.758-9.931,22.758-22.758V151.033C713.034,143.997,710.28,138.506,705.584,134.066z M364.208,45.931h76.969v129.52h-76.969V45.931z M667.519,554.069H132.481V45.931h94.35v180.411h267.717V45.931h50.9l122.069,114.212V554.069z"/>
	</symbol>
</svg>